<svg width="1791" height="498" viewBox="0 0 1791 498" fill="none" xmlns="http://www.w3.org/2000/svg">
<path d="M757.28 421.777V313.937H756C750.24 325.031 741.706 333.671 730.4 339.857C719.306 345.831 706.08 348.817 690.72 348.817C672.586 348.817 656.906 344.764 643.68 336.657C630.666 328.551 620.64 317.031 613.6 302.097C606.56 287.164 603.04 269.457 603.04 248.977C603.04 228.497 606.56 210.791 613.6 195.857C620.853 180.924 631.2 169.404 644.64 161.297C658.293 153.191 674.72 149.137 693.92 149.137C709.28 149.137 722.506 152.017 733.6 157.777C744.693 163.324 753.44 171.537 759.84 182.417H773.28V152.977H811.68V190.097H793.12V421.777H757.28ZM699.36 318.097C716.853 318.097 730.826 313.084 741.28 303.057C751.946 293.031 757.28 279.697 757.28 263.057V234.897C757.28 218.257 751.946 204.924 741.28 194.897C730.826 184.871 716.853 179.857 699.36 179.857C680.16 179.857 665.226 185.937 654.56 198.097C644.106 210.257 638.88 227.217 638.88 248.977C638.88 270.737 644.106 287.697 654.56 299.857C665.226 312.017 680.16 318.097 699.36 318.097Z" fill="white"/>
<path d="M921.65 348.497C896.903 348.497 877.49 341.671 863.41 328.017C849.33 314.151 842.29 295.591 842.29 272.337V152.977H878.13V264.657C878.13 281.937 882.61 295.057 891.57 304.017C900.53 312.764 913.543 317.137 930.61 317.137C948.743 317.137 962.716 312.551 972.53 303.377C982.556 293.991 987.57 280.977 987.57 264.337V152.977H1023.41V307.857H1041.97V344.977H1003.57V315.537H990.13C983.303 326.204 974.13 334.417 962.61 340.177C951.09 345.724 937.436 348.497 921.65 348.497Z" fill="white"/>
<path d="M1130.93 348.497C1109.17 348.497 1092 343.164 1079.41 332.497C1067.04 321.617 1060.85 307.431 1060.85 289.937C1060.85 271.591 1067.04 257.404 1079.41 247.377C1091.78 237.137 1109.6 232.017 1132.85 232.017H1198.45V223.377C1198.45 193.724 1182.13 178.897 1149.49 178.897C1122.82 178.897 1106.72 188.924 1101.17 208.977H1065.01C1068.21 189.991 1077.28 175.271 1092.21 164.817C1107.36 154.364 1126.66 149.137 1150.13 149.137C1176.8 149.137 1197.17 155.431 1211.25 168.017C1225.54 180.604 1232.69 198.737 1232.69 222.417V307.857H1249.97V344.977H1211.57V315.537H1198.13C1191.52 325.777 1182.45 333.884 1170.93 339.857C1159.41 345.617 1146.08 348.497 1130.93 348.497ZM1135.73 319.697C1147.25 319.697 1157.81 317.351 1167.41 312.657C1177.01 307.964 1184.58 301.564 1190.13 293.457C1195.68 285.351 1198.45 276.497 1198.45 266.897V258.257H1135.09C1108.21 258.257 1094.77 268.284 1094.77 288.337C1094.77 297.937 1098.4 305.617 1105.65 311.377C1112.9 316.924 1122.93 319.697 1135.73 319.697Z" fill="white"/>
<path d="M1356.43 348.817C1329.76 348.817 1308.75 343.271 1293.39 332.177C1278.03 321.084 1269.6 305.617 1268.11 285.777H1303.63C1305.12 297.511 1310.24 306.151 1318.99 311.697C1327.74 317.244 1340.64 320.017 1357.71 320.017C1387.58 320.017 1402.51 310.631 1402.51 291.857C1402.51 284.177 1400.16 278.311 1395.47 274.257C1390.99 269.991 1383.31 266.897 1372.43 264.977L1330.51 257.297C1294.88 250.684 1277.07 233.724 1277.07 206.417C1277.07 188.711 1283.79 174.737 1297.23 164.497C1310.67 154.257 1329.02 149.137 1352.27 149.137C1376.38 149.137 1395.47 154.364 1409.55 164.817C1423.84 175.271 1431.95 189.991 1433.87 208.977H1398.99C1396.86 198.311 1391.84 190.417 1383.95 185.297C1376.27 180.177 1365.39 177.617 1351.31 177.617C1338.3 177.617 1328.16 179.857 1320.91 184.337C1313.87 188.817 1310.35 195.324 1310.35 203.857C1310.35 210.471 1312.59 215.697 1317.07 219.537C1321.76 223.164 1329.23 225.937 1339.47 227.857L1381.39 235.857C1400.16 239.271 1413.92 245.351 1422.67 254.097C1431.42 262.844 1435.79 274.577 1435.79 289.297C1435.79 308.071 1428.96 322.684 1415.31 333.137C1401.66 343.591 1382.03 348.817 1356.43 348.817Z" fill="white"/>
<path d="M1520.48 348.497C1498.72 348.497 1481.55 343.164 1468.96 332.497C1456.59 321.617 1450.4 307.431 1450.4 289.937C1450.4 271.591 1456.59 257.404 1468.96 247.377C1481.33 237.137 1499.15 232.017 1522.4 232.017H1588V223.377C1588 193.724 1571.68 178.897 1539.04 178.897C1512.37 178.897 1496.27 188.924 1490.72 208.977H1454.56C1457.76 189.991 1466.83 175.271 1481.76 164.817C1496.91 154.364 1516.21 149.137 1539.68 149.137C1566.35 149.137 1586.72 155.431 1600.8 168.017C1615.09 180.604 1622.24 198.737 1622.24 222.417V307.857H1639.52V344.977H1601.12V315.537H1587.68C1581.07 325.777 1572 333.884 1560.48 339.857C1548.96 345.617 1535.63 348.497 1520.48 348.497ZM1525.28 319.697C1536.8 319.697 1547.36 317.351 1556.96 312.657C1566.56 307.964 1574.13 301.564 1579.68 293.457C1585.23 285.351 1588 276.497 1588 266.897V258.257H1524.64C1497.76 258.257 1484.32 268.284 1484.32 288.337C1484.32 297.937 1487.95 305.617 1495.2 311.377C1502.45 316.924 1512.48 319.697 1525.28 319.697Z" fill="white"/>
<path d="M1676.88 344.977V190.097H1658.32V152.977H1696.72V188.817H1710.16C1715.5 177.084 1723.71 167.911 1734.8 161.297C1746.11 154.684 1759.34 151.377 1774.48 151.377H1790.16V182.097H1772.56C1753.36 182.097 1738.54 187.751 1728.08 199.057C1717.63 210.364 1712.4 225.617 1712.4 244.817V344.977H1676.88Z" fill="white"/>
<g clip-path="url(#clip0_1877_3845)">
<rect width="504.352" height="497.954" rx="96" fill="#0E0E11"/>
<g clip-path="url(#clip1_1877_3845)">
<g clip-path="url(#clip2_1877_3845)">
<rect width="504.352" height="497.954" rx="96" fill="url(#paint0_linear_1877_3845)"/>
<g opacity="0.24" filter="url(#filter0_f_1877_3845)">
<mask id="mask0_1877_3845" style="mask-type:alpha" maskUnits="userSpaceOnUse" x="95" y="92" width="338" height="331">
<mask id="path-6-inside-1_1877_3845" fill="white">
<path d="M424.193 164.33C411.912 152.058 384.06 157.815 350.068 176.855C347.789 178.121 348.105 181.094 350.384 180.271C373.362 171.478 397.923 167.05 404.949 174.072C422.483 191.595 383.933 262.254 330.001 316.15C276.069 370.047 205.995 404.459 188.461 387C181.308 379.852 182.764 360.115 190.044 339.619C190.803 337.405 187.891 337.089 186.689 339.303C166.749 374.222 160.482 402.814 173.016 415.403C195.551 437.923 285.501 408.887 354.878 339.619C424.256 270.351 446.728 186.914 424.193 164.457V164.33Z"/>
<path d="M371.584 341.14C368.229 344.809 364.811 348.478 361.203 352.084C355.506 357.777 349.682 363.154 343.732 368.341L347.15 370.872C364.811 383.966 386.966 361.826 373.863 344.177L371.584 341.14Z"/>
<path d="M286.826 326.207L289.675 328.294C299.106 320.64 308.412 312.353 317.337 303.497C322.401 298.436 327.275 293.186 332.023 287.935L329.111 284.013C307.019 254.282 307.019 213.607 329.111 183.938L373.864 123.716C386.968 106.067 364.812 83.9269 347.152 97.0214L286.889 141.745C257.138 163.822 216.499 163.822 186.748 141.745L126.422 96.9581C108.762 83.8004 86.5431 106.004 99.7096 123.653L144.463 183.875C166.555 213.607 166.555 254.282 144.463 283.95L99.7096 344.235C86.6064 361.884 108.762 384.025 126.422 370.93L186.685 326.207C216.436 304.129 257.138 304.129 286.826 326.207ZM176.113 290.655C206.181 258.836 206.181 209.052 176.113 177.17C173.645 174.576 177.443 170.844 180.038 173.248C211.878 203.296 261.696 203.296 293.599 173.248C296.195 170.781 299.929 174.576 297.524 177.17C267.456 208.989 267.456 258.773 297.524 290.655C299.993 293.249 296.195 296.981 293.599 294.577C261.759 264.53 211.942 264.53 180.038 294.577C177.443 297.044 173.708 293.249 176.113 290.655Z"/>
</mask>
<path d="M424.193 164.33C411.912 152.058 384.06 157.815 350.068 176.855C347.789 178.121 348.105 181.094 350.384 180.271C373.362 171.478 397.923 167.05 404.949 174.072C422.483 191.595 383.933 262.254 330.001 316.15C276.069 370.047 205.995 404.459 188.461 387C181.308 379.852 182.764 360.115 190.044 339.619C190.803 337.405 187.891 337.089 186.689 339.303C166.749 374.222 160.482 402.814 173.016 415.403C195.551 437.923 285.501 408.887 354.878 339.619C424.256 270.351 446.728 186.914 424.193 164.457V164.33Z" fill="url(#paint1_linear_1877_3845)"/>
<path d="M371.584 341.14C368.229 344.809 364.811 348.478 361.203 352.084C355.506 357.777 349.682 363.154 343.732 368.341L347.15 370.872C364.811 383.966 386.966 361.826 373.863 344.177L371.584 341.14Z" fill="url(#paint2_linear_1877_3845)"/>
<path d="M286.826 326.207L289.675 328.294C299.106 320.64 308.412 312.353 317.337 303.497C322.401 298.436 327.275 293.186 332.023 287.935L329.111 284.013C307.019 254.282 307.019 213.607 329.111 183.938L373.864 123.716C386.968 106.067 364.812 83.9269 347.152 97.0214L286.889 141.745C257.138 163.822 216.499 163.822 186.748 141.745L126.422 96.9581C108.762 83.8004 86.5431 106.004 99.7096 123.653L144.463 183.875C166.555 213.607 166.555 254.282 144.463 283.95L99.7096 344.235C86.6064 361.884 108.762 384.025 126.422 370.93L186.685 326.207C216.436 304.129 257.138 304.129 286.826 326.207ZM176.113 290.655C206.181 258.836 206.181 209.052 176.113 177.17C173.645 174.576 177.443 170.844 180.038 173.248C211.878 203.296 261.696 203.296 293.599 173.248C296.195 170.781 299.929 174.576 297.524 177.17C267.456 208.989 267.456 258.773 297.524 290.655C299.993 293.249 296.195 296.981 293.599 294.577C261.759 264.53 211.942 264.53 180.038 294.577C177.443 297.044 173.708 293.249 176.113 290.655Z" fill="url(#paint3_linear_1877_3845)"/>
<path d="M424.193 164.33C411.912 152.058 384.06 157.815 350.068 176.855C347.789 178.121 348.105 181.094 350.384 180.271C373.362 171.478 397.923 167.05 404.949 174.072C422.483 191.595 383.933 262.254 330.001 316.15C276.069 370.047 205.995 404.459 188.461 387C181.308 379.852 182.764 360.115 190.044 339.619C190.803 337.405 187.891 337.089 186.689 339.303C166.749 374.222 160.482 402.814 173.016 415.403C195.551 437.923 285.501 408.887 354.878 339.619C424.256 270.351 446.728 186.914 424.193 164.457V164.33Z" stroke="white" stroke-opacity="0.15" stroke-width="6.47155" mask="url(#path-6-inside-1_1877_3845)"/>
<path d="M371.584 341.14C368.229 344.809 364.811 348.478 361.203 352.084C355.506 357.777 349.682 363.154 343.732 368.341L347.15 370.872C364.811 383.966 386.966 361.826 373.863 344.177L371.584 341.14Z" stroke="white" stroke-opacity="0.15" stroke-width="6.47155" mask="url(#path-6-inside-1_1877_3845)"/>
<path d="M286.826 326.207L289.675 328.294C299.106 320.64 308.412 312.353 317.337 303.497C322.401 298.436 327.275 293.186 332.023 287.935L329.111 284.013C307.019 254.282 307.019 213.607 329.111 183.938L373.864 123.716C386.968 106.067 364.812 83.9269 347.152 97.0214L286.889 141.745C257.138 163.822 216.499 163.822 186.748 141.745L126.422 96.9581C108.762 83.8004 86.5431 106.004 99.7096 123.653L144.463 183.875C166.555 213.607 166.555 254.282 144.463 283.95L99.7096 344.235C86.6064 361.884 108.762 384.025 126.422 370.93L186.685 326.207C216.436 304.129 257.138 304.129 286.826 326.207ZM176.113 290.655C206.181 258.836 206.181 209.052 176.113 177.17C173.645 174.576 177.443 170.844 180.038 173.248C211.878 203.296 261.696 203.296 293.599 173.248C296.195 170.781 299.929 174.576 297.524 177.17C267.456 208.989 267.456 258.773 297.524 290.655C299.993 293.249 296.195 296.981 293.599 294.577C261.759 264.53 211.942 264.53 180.038 294.577C177.443 297.044 173.708 293.249 176.113 290.655Z" stroke="white" stroke-opacity="0.15" stroke-width="6.47155" mask="url(#path-6-inside-1_1877_3845)"/>
</mask>
<g mask="url(#mask0_1877_3845)">
<mask id="path-7-inside-2_1877_3845" fill="white">
<path d="M286.825 326.268L289.673 328.356C299.105 320.701 308.41 312.415 317.336 303.558C322.4 298.498 327.274 293.247 332.021 287.997L329.109 284.075C307.018 254.343 307.018 213.668 329.109 184L373.863 123.778C386.966 106.129 364.811 83.9884 347.15 97.0829L286.888 141.807C257.137 163.884 216.498 163.884 186.746 141.807L126.421 97.0197C108.76 83.8619 86.5416 106.066 99.7081 123.715L144.462 183.937C166.554 213.668 166.554 254.343 144.462 284.012L99.7081 344.297C86.6049 361.946 108.76 384.086 126.421 370.992L186.683 326.268C216.434 304.191 257.137 304.191 286.825 326.268ZM176.112 290.717C206.18 258.898 206.18 209.114 176.112 177.231C173.643 174.638 177.441 170.905 180.037 173.309C211.877 203.357 261.694 203.357 293.598 173.309C296.193 170.842 299.928 174.638 297.522 177.231C267.455 209.05 267.455 258.835 297.522 290.717C299.991 293.311 296.193 297.043 293.598 294.639C261.758 264.591 211.94 264.591 180.037 294.639C177.441 297.106 173.707 293.311 176.112 290.717Z"/>
</mask>
<path d="M286.825 326.268L289.673 328.356C299.105 320.701 308.41 312.415 317.336 303.558C322.4 298.498 327.274 293.247 332.021 287.997L329.109 284.075C307.018 254.343 307.018 213.668 329.109 184L373.863 123.778C386.966 106.129 364.811 83.9884 347.15 97.0829L286.888 141.807C257.137 163.884 216.498 163.884 186.746 141.807L126.421 97.0197C108.76 83.8619 86.5416 106.066 99.7081 123.715L144.462 183.937C166.554 213.668 166.554 254.343 144.462 284.012L99.7081 344.297C86.6049 361.946 108.76 384.086 126.421 370.992L186.683 326.268C216.434 304.191 257.137 304.191 286.825 326.268ZM176.112 290.717C206.18 258.898 206.18 209.114 176.112 177.231C173.643 174.638 177.441 170.905 180.037 173.309C211.877 203.357 261.694 203.357 293.598 173.309C296.193 170.842 299.928 174.638 297.522 177.231C267.455 209.05 267.455 258.835 297.522 290.717C299.991 293.311 296.193 297.043 293.598 294.639C261.758 264.591 211.94 264.591 180.037 294.639C177.441 297.106 173.707 293.311 176.112 290.717Z" fill="#0B0E14" stroke="white" stroke-opacity="0.25" stroke-width="6.47155" mask="url(#path-7-inside-2_1877_3845)"/>
</g>
<mask id="mask1_1877_3845" style="mask-type:alpha" maskUnits="userSpaceOnUse" x="95" y="92" width="338" height="331">
<mask id="path-8-inside-3_1877_3845" fill="white">
<path d="M424.193 164.33C411.913 152.058 384.061 157.815 350.069 176.855C347.79 178.121 348.106 181.094 350.385 180.271C373.363 171.478 397.924 167.05 404.95 174.072C422.484 191.595 383.934 262.254 330.002 316.15C276.07 370.047 205.996 404.459 188.462 387C181.309 379.852 182.765 360.115 190.045 339.619C190.804 337.405 187.892 337.089 186.69 339.303C166.75 374.222 160.483 402.814 173.017 415.403C195.552 437.923 285.502 408.887 354.879 339.619C424.257 270.351 446.728 186.914 424.193 164.457V164.33Z"/>
<path d="M371.585 341.14C368.23 344.809 364.812 348.478 361.204 352.084C355.507 357.777 349.683 363.154 343.733 368.341L347.151 370.872C364.812 383.966 386.967 361.826 373.864 344.177L371.585 341.14Z"/>
<path d="M286.827 326.207L289.676 328.294C299.107 320.64 308.413 312.353 317.338 303.497C322.402 298.436 327.276 293.186 332.024 287.935L329.112 284.013C307.02 254.282 307.02 213.607 329.112 183.938L373.865 123.716C386.969 106.067 364.813 83.9269 347.153 97.0214L286.89 141.745C257.139 163.822 216.5 163.822 186.749 141.745L126.423 96.9581C108.763 83.8004 86.544 106.004 99.7106 123.653L144.464 183.875C166.556 213.607 166.556 254.282 144.464 283.95L99.7106 344.235C86.6073 361.884 108.763 384.025 126.423 370.93L186.686 326.207C216.437 304.129 257.139 304.129 286.827 326.207ZM176.114 290.655C206.182 258.836 206.182 209.052 176.114 177.17C173.646 174.576 177.444 170.844 180.039 173.248C211.879 203.296 261.697 203.296 293.6 173.248C296.196 170.781 299.93 174.576 297.525 177.17C267.457 208.989 267.457 258.773 297.525 290.655C299.994 293.249 296.196 296.981 293.6 294.577C261.76 264.53 211.942 264.53 180.039 294.577C177.444 297.044 173.709 293.249 176.114 290.655Z"/>
</mask>
<path d="M424.193 164.33C411.913 152.058 384.061 157.815 350.069 176.855C347.79 178.121 348.106 181.094 350.385 180.271C373.363 171.478 397.924 167.05 404.95 174.072C422.484 191.595 383.934 262.254 330.002 316.15C276.07 370.047 205.996 404.459 188.462 387C181.309 379.852 182.765 360.115 190.045 339.619C190.804 337.405 187.892 337.089 186.69 339.303C166.75 374.222 160.483 402.814 173.017 415.403C195.552 437.923 285.502 408.887 354.879 339.619C424.257 270.351 446.728 186.914 424.193 164.457V164.33Z" fill="url(#paint4_linear_1877_3845)"/>
<path d="M371.585 341.14C368.23 344.809 364.812 348.478 361.204 352.084C355.507 357.777 349.683 363.154 343.733 368.341L347.151 370.872C364.812 383.966 386.967 361.826 373.864 344.177L371.585 341.14Z" fill="url(#paint5_linear_1877_3845)"/>
<path d="M286.827 326.207L289.676 328.294C299.107 320.64 308.413 312.353 317.338 303.497C322.402 298.436 327.276 293.186 332.024 287.935L329.112 284.013C307.02 254.282 307.02 213.607 329.112 183.938L373.865 123.716C386.969 106.067 364.813 83.9269 347.153 97.0214L286.89 141.745C257.139 163.822 216.5 163.822 186.749 141.745L126.423 96.9581C108.763 83.8004 86.544 106.004 99.7106 123.653L144.464 183.875C166.556 213.607 166.556 254.282 144.464 283.95L99.7106 344.235C86.6073 361.884 108.763 384.025 126.423 370.93L186.686 326.207C216.437 304.129 257.139 304.129 286.827 326.207ZM176.114 290.655C206.182 258.836 206.182 209.052 176.114 177.17C173.646 174.576 177.444 170.844 180.039 173.248C211.879 203.296 261.697 203.296 293.6 173.248C296.196 170.781 299.93 174.576 297.525 177.17C267.457 208.989 267.457 258.773 297.525 290.655C299.994 293.249 296.196 296.981 293.6 294.577C261.76 264.53 211.942 264.53 180.039 294.577C177.444 297.044 173.709 293.249 176.114 290.655Z" fill="url(#paint6_linear_1877_3845)"/>
<path d="M424.193 164.33C411.913 152.058 384.061 157.815 350.069 176.855C347.79 178.121 348.106 181.094 350.385 180.271C373.363 171.478 397.924 167.05 404.95 174.072C422.484 191.595 383.934 262.254 330.002 316.15C276.07 370.047 205.996 404.459 188.462 387C181.309 379.852 182.765 360.115 190.045 339.619C190.804 337.405 187.892 337.089 186.69 339.303C166.75 374.222 160.483 402.814 173.017 415.403C195.552 437.923 285.502 408.887 354.879 339.619C424.257 270.351 446.728 186.914 424.193 164.457V164.33Z" stroke="white" stroke-opacity="0.15" stroke-width="6.47155" mask="url(#path-8-inside-3_1877_3845)"/>
<path d="M371.585 341.14C368.23 344.809 364.812 348.478 361.204 352.084C355.507 357.777 349.683 363.154 343.733 368.341L347.151 370.872C364.812 383.966 386.967 361.826 373.864 344.177L371.585 341.14Z" stroke="white" stroke-opacity="0.15" stroke-width="6.47155" mask="url(#path-8-inside-3_1877_3845)"/>
<path d="M286.827 326.207L289.676 328.294C299.107 320.64 308.413 312.353 317.338 303.497C322.402 298.436 327.276 293.186 332.024 287.935L329.112 284.013C307.02 254.282 307.02 213.607 329.112 183.938L373.865 123.716C386.969 106.067 364.813 83.9269 347.153 97.0214L286.89 141.745C257.139 163.822 216.5 163.822 186.749 141.745L126.423 96.9581C108.763 83.8004 86.544 106.004 99.7106 123.653L144.464 183.875C166.556 213.607 166.556 254.282 144.464 283.95L99.7106 344.235C86.6073 361.884 108.763 384.025 126.423 370.93L186.686 326.207C216.437 304.129 257.139 304.129 286.827 326.207ZM176.114 290.655C206.182 258.836 206.182 209.052 176.114 177.17C173.646 174.576 177.444 170.844 180.039 173.248C211.879 203.296 261.697 203.296 293.6 173.248C296.196 170.781 299.93 174.576 297.525 177.17C267.457 208.989 267.457 258.773 297.525 290.655C299.994 293.249 296.196 296.981 293.6 294.577C261.76 264.53 211.942 264.53 180.039 294.577C177.444 297.044 173.709 293.249 176.114 290.655Z" stroke="white" stroke-opacity="0.15" stroke-width="6.47155" mask="url(#path-8-inside-3_1877_3845)"/>
</mask>
<g mask="url(#mask1_1877_3845)">
<g filter="url(#filter1_d_1877_3845)">
<mask id="path-9-inside-4_1877_3845" fill="white">
<path d="M423.798 163.842C411.517 151.569 383.665 157.326 349.673 176.367C347.394 177.632 347.71 180.605 349.989 179.783C372.967 170.99 397.528 166.562 404.554 173.583C422.088 191.106 383.538 261.766 329.606 315.662C275.674 369.558 205.6 403.971 188.066 386.511C180.913 379.363 182.369 359.626 189.649 339.131C190.408 336.917 187.496 336.6 186.294 338.814C166.354 373.733 160.087 402.326 172.621 414.914C195.156 437.434 285.106 408.399 354.483 339.131C423.861 269.863 446.333 186.425 423.798 163.968V163.842Z"/>
<path d="M371.189 340.651C367.834 344.32 364.416 347.989 360.808 351.595C355.111 357.288 349.287 362.665 343.337 367.853L346.755 370.383C364.416 383.477 386.571 361.337 373.468 343.688L371.189 340.651Z"/>
</mask>
<path d="M423.798 163.842C411.517 151.569 383.665 157.326 349.673 176.367C347.394 177.632 347.71 180.605 349.989 179.783C372.967 170.99 397.528 166.562 404.554 173.583C422.088 191.106 383.538 261.766 329.606 315.662C275.674 369.558 205.6 403.971 188.066 386.511C180.913 379.363 182.369 359.626 189.649 339.131C190.408 336.917 187.496 336.6 186.294 338.814C166.354 373.733 160.087 402.326 172.621 414.914C195.156 437.434 285.106 408.399 354.483 339.131C423.861 269.863 446.333 186.425 423.798 163.968V163.842Z" fill="white" fill-opacity="0.25" shape-rendering="crispEdges"/>
<path d="M371.189 340.651C367.834 344.32 364.416 347.989 360.808 351.595C355.111 357.288 349.287 362.665 343.337 367.853L346.755 370.383C364.416 383.477 386.571 361.337 373.468 343.688L371.189 340.651Z" fill="white" fill-opacity="0.25" shape-rendering="crispEdges"/>
<path d="M423.798 163.842C411.517 151.569 383.665 157.326 349.673 176.367C347.394 177.632 347.71 180.605 349.989 179.783C372.967 170.99 397.528 166.562 404.554 173.583C422.088 191.106 383.538 261.766 329.606 315.662C275.674 369.558 205.6 403.971 188.066 386.511C180.913 379.363 182.369 359.626 189.649 339.131C190.408 336.917 187.496 336.6 186.294 338.814C166.354 373.733 160.087 402.326 172.621 414.914C195.156 437.434 285.106 408.399 354.483 339.131C423.861 269.863 446.333 186.425 423.798 163.968V163.842Z" stroke="white" stroke-opacity="0.25" stroke-width="6.47155" shape-rendering="crispEdges" mask="url(#path-9-inside-4_1877_3845)"/>
<path d="M371.189 340.651C367.834 344.32 364.416 347.989 360.808 351.595C355.111 357.288 349.287 362.665 343.337 367.853L346.755 370.383C364.416 383.477 386.571 361.337 373.468 343.688L371.189 340.651Z" stroke="white" stroke-opacity="0.25" stroke-width="6.47155" shape-rendering="crispEdges" mask="url(#path-9-inside-4_1877_3845)"/>
</g>
<mask id="path-10-inside-5_1877_3845" fill="white">
<path d="M286.825 326.268L289.673 328.356C299.105 320.701 308.41 312.415 317.336 303.558C322.4 298.498 327.274 293.247 332.021 287.997L329.109 284.075C307.018 254.343 307.018 213.668 329.109 184L373.863 123.778C386.966 106.129 364.811 83.9884 347.15 97.0829L286.888 141.807C257.137 163.884 216.498 163.884 186.746 141.807L126.421 97.0197C108.76 83.8619 86.5416 106.066 99.7081 123.715L144.462 183.937C166.554 213.668 166.554 254.343 144.462 284.012L99.7081 344.297C86.6049 361.946 108.76 384.086 126.421 370.992L186.683 326.268C216.434 304.191 257.137 304.191 286.825 326.268ZM176.112 290.717C206.18 258.898 206.18 209.114 176.112 177.231C173.643 174.638 177.441 170.905 180.037 173.309C211.877 203.357 261.694 203.357 293.598 173.309C296.193 170.842 299.928 174.638 297.522 177.231C267.455 209.05 267.455 258.835 297.522 290.717C299.991 293.311 296.193 297.043 293.598 294.639C261.758 264.591 211.94 264.591 180.037 294.639C177.441 297.106 173.707 293.311 176.112 290.717Z"/>
</mask>
<path d="M286.825 326.268L289.673 328.356C299.105 320.701 308.41 312.415 317.336 303.558C322.4 298.498 327.274 293.247 332.021 287.997L329.109 284.075C307.018 254.343 307.018 213.668 329.109 184L373.863 123.778C386.966 106.129 364.811 83.9884 347.15 97.0829L286.888 141.807C257.137 163.884 216.498 163.884 186.746 141.807L126.421 97.0197C108.76 83.8619 86.5416 106.066 99.7081 123.715L144.462 183.937C166.554 213.668 166.554 254.343 144.462 284.012L99.7081 344.297C86.6049 361.946 108.76 384.086 126.421 370.992L186.683 326.268C216.434 304.191 257.137 304.191 286.825 326.268ZM176.112 290.717C206.18 258.898 206.18 209.114 176.112 177.231C173.643 174.638 177.441 170.905 180.037 173.309C211.877 203.357 261.694 203.357 293.598 173.309C296.193 170.842 299.928 174.638 297.522 177.231C267.455 209.05 267.455 258.835 297.522 290.717C299.991 293.311 296.193 297.043 293.598 294.639C261.758 264.591 211.94 264.591 180.037 294.639C177.441 297.106 173.707 293.311 176.112 290.717Z" fill="#0B0E14" stroke="white" stroke-opacity="0.25" stroke-width="6.47155" mask="url(#path-10-inside-5_1877_3845)"/>
<g filter="url(#filter2_f_1877_3845)" style="mix-blend-mode:plus-lighter">
<ellipse cx="262.675" cy="25.5036" rx="140.756" ry="404.472" transform="rotate(45 262.675 25.5036)" fill="#33EEFF"/>
</g>
<g filter="url(#filter3_f_1877_3845)" style="mix-blend-mode:plus-lighter">
<ellipse cx="301.096" cy="324.235" rx="69.0099" ry="404.472" transform="rotate(45 301.096 324.235)" fill="#FF9933"/>
</g>
<g filter="url(#filter4_f_1877_3845)" style="mix-blend-mode:plus-lighter">
<ellipse cx="394.568" cy="417.706" rx="80.3141" ry="404.472" transform="rotate(45 394.568 417.706)" fill="#FFEE00"/>
</g>
<g filter="url(#filter5_f_1877_3845)" style="mix-blend-mode:plus-lighter">
<ellipse cx="262.675" cy="25.5036" rx="140.756" ry="404.472" transform="rotate(45 262.675 25.5036)" fill="#33EEFF"/>
</g>
<g filter="url(#filter6_f_1877_3845)" style="mix-blend-mode:plus-lighter">
<ellipse cx="86.4957" cy="316.085" rx="140.756" ry="404.472" transform="rotate(45 86.4957 316.085)" fill="#5F33FF"/>
</g>
</g>
</g>
<mask id="mask2_1877_3845" style="mask-type:alpha" maskUnits="userSpaceOnUse" x="95" y="93" width="338" height="330">
<mask id="path-16-inside-6_1877_3845" fill="white">
<path d="M424.193 164.404C411.912 152.132 384.06 157.889 350.068 176.929C347.789 178.195 348.105 181.168 350.384 180.345C373.362 171.552 397.923 167.124 404.949 174.146C422.483 191.669 383.933 262.328 330.001 316.224C276.069 370.121 205.995 404.533 188.461 387.074C181.308 379.926 182.764 360.189 190.044 339.693C190.803 337.479 187.891 337.163 186.689 339.377C166.749 374.296 160.482 402.888 173.016 415.477C195.551 437.997 285.501 408.961 354.878 339.693C424.256 270.425 446.728 186.987 424.193 164.531V164.404Z"/>
<path d="M371.584 341.214C368.229 344.883 364.811 348.552 361.203 352.158C355.506 357.851 349.682 363.228 343.732 368.415L347.15 370.946C364.811 384.04 386.966 361.9 373.863 344.25L371.584 341.214Z"/>
<path d="M286.826 326.281L289.675 328.368C299.106 320.714 308.412 312.427 317.337 303.571C322.401 298.51 327.275 293.26 332.023 288.009L329.111 284.087C307.019 254.356 307.019 213.681 329.111 184.012L373.864 123.79C386.968 106.141 364.812 84.0009 347.152 97.0954L286.889 141.819C257.138 163.896 216.499 163.896 186.748 141.819L126.422 97.0321C108.762 83.8744 86.5431 106.078 99.7096 123.727L144.463 183.949C166.555 213.681 166.555 254.356 144.463 284.024L99.7096 344.309C86.6064 361.958 108.762 384.099 126.422 371.004L186.685 326.281C216.436 304.203 257.138 304.203 286.826 326.281ZM176.113 290.729C206.181 258.91 206.181 209.126 176.113 177.244C173.645 174.65 177.443 170.918 180.038 173.322C211.878 203.37 261.696 203.37 293.599 173.322C296.195 170.855 299.929 174.65 297.524 177.244C267.456 209.063 267.456 258.847 297.524 290.729C299.993 293.323 296.195 297.055 293.599 294.651C261.759 264.604 211.942 264.604 180.038 294.651C177.443 297.118 173.708 293.323 176.113 290.729Z"/>
</mask>
<path d="M424.193 164.404C411.912 152.132 384.06 157.889 350.068 176.929C347.789 178.195 348.105 181.168 350.384 180.345C373.362 171.552 397.923 167.124 404.949 174.146C422.483 191.669 383.933 262.328 330.001 316.224C276.069 370.121 205.995 404.533 188.461 387.074C181.308 379.926 182.764 360.189 190.044 339.693C190.803 337.479 187.891 337.163 186.689 339.377C166.749 374.296 160.482 402.888 173.016 415.477C195.551 437.997 285.501 408.961 354.878 339.693C424.256 270.425 446.728 186.987 424.193 164.531V164.404Z" fill="url(#paint7_linear_1877_3845)"/>
<path d="M371.584 341.214C368.229 344.883 364.811 348.552 361.203 352.158C355.506 357.851 349.682 363.228 343.732 368.415L347.15 370.946C364.811 384.04 386.966 361.9 373.863 344.25L371.584 341.214Z" fill="url(#paint8_linear_1877_3845)"/>
<path d="M286.826 326.281L289.675 328.368C299.106 320.714 308.412 312.427 317.337 303.571C322.401 298.51 327.275 293.26 332.023 288.009L329.111 284.087C307.019 254.356 307.019 213.681 329.111 184.012L373.864 123.79C386.968 106.141 364.812 84.0009 347.152 97.0954L286.889 141.819C257.138 163.896 216.499 163.896 186.748 141.819L126.422 97.0321C108.762 83.8744 86.5431 106.078 99.7096 123.727L144.463 183.949C166.555 213.681 166.555 254.356 144.463 284.024L99.7096 344.309C86.6064 361.958 108.762 384.099 126.422 371.004L186.685 326.281C216.436 304.203 257.138 304.203 286.826 326.281ZM176.113 290.729C206.181 258.91 206.181 209.126 176.113 177.244C173.645 174.65 177.443 170.918 180.038 173.322C211.878 203.37 261.696 203.37 293.599 173.322C296.195 170.855 299.929 174.65 297.524 177.244C267.456 209.063 267.456 258.847 297.524 290.729C299.993 293.323 296.195 297.055 293.599 294.651C261.759 264.604 211.942 264.604 180.038 294.651C177.443 297.118 173.708 293.323 176.113 290.729Z" fill="url(#paint9_linear_1877_3845)"/>
<path d="M424.193 164.404C411.912 152.132 384.06 157.889 350.068 176.929C347.789 178.195 348.105 181.168 350.384 180.345C373.362 171.552 397.923 167.124 404.949 174.146C422.483 191.669 383.933 262.328 330.001 316.224C276.069 370.121 205.995 404.533 188.461 387.074C181.308 379.926 182.764 360.189 190.044 339.693C190.803 337.479 187.891 337.163 186.689 339.377C166.749 374.296 160.482 402.888 173.016 415.477C195.551 437.997 285.501 408.961 354.878 339.693C424.256 270.425 446.728 186.987 424.193 164.531V164.404Z" stroke="white" stroke-opacity="0.15" stroke-width="6.47155" mask="url(#path-16-inside-6_1877_3845)"/>
<path d="M371.584 341.214C368.229 344.883 364.811 348.552 361.203 352.158C355.506 357.851 349.682 363.228 343.732 368.415L347.15 370.946C364.811 384.04 386.966 361.9 373.863 344.25L371.584 341.214Z" stroke="white" stroke-opacity="0.15" stroke-width="6.47155" mask="url(#path-16-inside-6_1877_3845)"/>
<path d="M286.826 326.281L289.675 328.368C299.106 320.714 308.412 312.427 317.337 303.571C322.401 298.51 327.275 293.26 332.023 288.009L329.111 284.087C307.019 254.356 307.019 213.681 329.111 184.012L373.864 123.79C386.968 106.141 364.812 84.0009 347.152 97.0954L286.889 141.819C257.138 163.896 216.499 163.896 186.748 141.819L126.422 97.0321C108.762 83.8744 86.5431 106.078 99.7096 123.727L144.463 183.949C166.555 213.681 166.555 254.356 144.463 284.024L99.7096 344.309C86.6064 361.958 108.762 384.099 126.422 371.004L186.685 326.281C216.436 304.203 257.138 304.203 286.826 326.281ZM176.113 290.729C206.181 258.91 206.181 209.126 176.113 177.244C173.645 174.65 177.443 170.918 180.038 173.322C211.878 203.37 261.696 203.37 293.599 173.322C296.195 170.855 299.929 174.65 297.524 177.244C267.456 209.063 267.456 258.847 297.524 290.729C299.993 293.323 296.195 297.055 293.599 294.651C261.759 264.604 211.942 264.604 180.038 294.651C177.443 297.118 173.708 293.323 176.113 290.729Z" stroke="white" stroke-opacity="0.15" stroke-width="6.47155" mask="url(#path-16-inside-6_1877_3845)"/>
</mask>
<g mask="url(#mask2_1877_3845)">
<mask id="path-17-inside-7_1877_3845" fill="white">
<path d="M286.825 326.342L289.673 328.43C299.105 320.776 308.41 312.489 317.336 303.633C322.4 298.572 327.274 293.322 332.021 288.071L329.109 284.149C307.018 254.418 307.018 213.743 329.109 184.074L373.863 123.852C386.966 106.203 364.811 84.0628 347.15 97.1573L286.888 141.881C257.137 163.958 216.498 163.958 186.746 141.881L126.421 97.094C108.76 83.9363 86.5416 106.14 99.7081 123.789L144.462 184.011C166.554 213.743 166.554 254.418 144.462 284.086L99.7081 344.371C86.6049 362.02 108.76 384.161 126.421 371.066L186.683 326.342C216.434 304.265 257.137 304.265 286.825 326.342ZM176.112 290.791C206.18 258.972 206.18 209.188 176.112 177.306C173.643 174.712 177.441 170.98 180.037 173.384C211.877 203.431 261.694 203.431 293.598 173.384C296.193 170.917 299.928 174.712 297.522 177.306C267.455 209.125 267.455 258.909 297.522 290.791C299.991 293.385 296.193 297.117 293.598 294.713C261.758 264.666 211.94 264.666 180.037 294.713C177.441 297.18 173.707 293.385 176.112 290.791Z"/>
</mask>
<path d="M286.825 326.342L289.673 328.43C299.105 320.776 308.41 312.489 317.336 303.633C322.4 298.572 327.274 293.322 332.021 288.071L329.109 284.149C307.018 254.418 307.018 213.743 329.109 184.074L373.863 123.852C386.966 106.203 364.811 84.0628 347.15 97.1573L286.888 141.881C257.137 163.958 216.498 163.958 186.746 141.881L126.421 97.094C108.76 83.9363 86.5416 106.14 99.7081 123.789L144.462 184.011C166.554 213.743 166.554 254.418 144.462 284.086L99.7081 344.371C86.6049 362.02 108.76 384.161 126.421 371.066L186.683 326.342C216.434 304.265 257.137 304.265 286.825 326.342ZM176.112 290.791C206.18 258.972 206.18 209.188 176.112 177.306C173.643 174.712 177.441 170.98 180.037 173.384C211.877 203.431 261.694 203.431 293.598 173.384C296.193 170.917 299.928 174.712 297.522 177.306C267.455 209.125 267.455 258.909 297.522 290.791C299.991 293.385 296.193 297.117 293.598 294.713C261.758 264.666 211.94 264.666 180.037 294.713C177.441 297.18 173.707 293.385 176.112 290.791Z" fill="#0B0E14" stroke="white" stroke-opacity="0.25" stroke-width="6.47155" mask="url(#path-17-inside-7_1877_3845)"/>
</g>
<mask id="mask3_1877_3845" style="mask-type:alpha" maskUnits="userSpaceOnUse" x="95" y="93" width="338" height="330">
<mask id="path-18-inside-8_1877_3845" fill="white">
<path d="M424.193 164.404C411.913 152.132 384.061 157.889 350.069 176.929C347.79 178.195 348.106 181.168 350.385 180.345C373.363 171.552 397.924 167.124 404.95 174.146C422.484 191.669 383.934 262.328 330.002 316.224C276.07 370.121 205.996 404.533 188.462 387.074C181.309 379.926 182.765 360.189 190.045 339.693C190.804 337.479 187.892 337.163 186.69 339.377C166.75 374.296 160.483 402.888 173.017 415.477C195.552 437.997 285.502 408.961 354.879 339.693C424.257 270.425 446.728 186.987 424.193 164.531V164.404Z"/>
<path d="M371.585 341.214C368.23 344.883 364.812 348.552 361.204 352.158C355.507 357.851 349.683 363.228 343.733 368.415L347.151 370.946C364.812 384.04 386.967 361.9 373.864 344.25L371.585 341.214Z"/>
<path d="M286.827 326.281L289.676 328.368C299.107 320.714 308.413 312.427 317.338 303.571C322.402 298.51 327.276 293.26 332.024 288.009L329.112 284.087C307.02 254.356 307.02 213.681 329.112 184.012L373.865 123.79C386.969 106.141 364.813 84.0009 347.153 97.0954L286.89 141.819C257.139 163.896 216.5 163.896 186.749 141.819L126.423 97.0321C108.763 83.8744 86.544 106.078 99.7106 123.727L144.464 183.949C166.556 213.681 166.556 254.356 144.464 284.024L99.7106 344.309C86.6073 361.958 108.763 384.099 126.423 371.004L186.686 326.281C216.437 304.203 257.139 304.203 286.827 326.281ZM176.114 290.729C206.182 258.91 206.182 209.126 176.114 177.244C173.646 174.65 177.444 170.918 180.039 173.322C211.879 203.37 261.697 203.37 293.6 173.322C296.196 170.855 299.93 174.65 297.525 177.244C267.457 209.063 267.457 258.847 297.525 290.729C299.994 293.323 296.196 297.055 293.6 294.651C261.76 264.604 211.942 264.604 180.039 294.651C177.444 297.118 173.709 293.323 176.114 290.729Z"/>
</mask>
<path d="M424.193 164.404C411.913 152.132 384.061 157.889 350.069 176.929C347.79 178.195 348.106 181.168 350.385 180.345C373.363 171.552 397.924 167.124 404.95 174.146C422.484 191.669 383.934 262.328 330.002 316.224C276.07 370.121 205.996 404.533 188.462 387.074C181.309 379.926 182.765 360.189 190.045 339.693C190.804 337.479 187.892 337.163 186.69 339.377C166.75 374.296 160.483 402.888 173.017 415.477C195.552 437.997 285.502 408.961 354.879 339.693C424.257 270.425 446.728 186.987 424.193 164.531V164.404Z" fill="url(#paint10_linear_1877_3845)"/>
<path d="M371.585 341.214C368.23 344.883 364.812 348.552 361.204 352.158C355.507 357.851 349.683 363.228 343.733 368.415L347.151 370.946C364.812 384.04 386.967 361.9 373.864 344.25L371.585 341.214Z" fill="url(#paint11_linear_1877_3845)"/>
<path d="M286.827 326.281L289.676 328.368C299.107 320.714 308.413 312.427 317.338 303.571C322.402 298.51 327.276 293.26 332.024 288.009L329.112 284.087C307.02 254.356 307.02 213.681 329.112 184.012L373.865 123.79C386.969 106.141 364.813 84.0009 347.153 97.0954L286.89 141.819C257.139 163.896 216.5 163.896 186.749 141.819L126.423 97.0321C108.763 83.8744 86.544 106.078 99.7106 123.727L144.464 183.949C166.556 213.681 166.556 254.356 144.464 284.024L99.7106 344.309C86.6073 361.958 108.763 384.099 126.423 371.004L186.686 326.281C216.437 304.203 257.139 304.203 286.827 326.281ZM176.114 290.729C206.182 258.91 206.182 209.126 176.114 177.244C173.646 174.65 177.444 170.918 180.039 173.322C211.879 203.37 261.697 203.37 293.6 173.322C296.196 170.855 299.93 174.65 297.525 177.244C267.457 209.063 267.457 258.847 297.525 290.729C299.994 293.323 296.196 297.055 293.6 294.651C261.76 264.604 211.942 264.604 180.039 294.651C177.444 297.118 173.709 293.323 176.114 290.729Z" fill="url(#paint12_linear_1877_3845)"/>
<path d="M424.193 164.404C411.913 152.132 384.061 157.889 350.069 176.929C347.79 178.195 348.106 181.168 350.385 180.345C373.363 171.552 397.924 167.124 404.95 174.146C422.484 191.669 383.934 262.328 330.002 316.224C276.07 370.121 205.996 404.533 188.462 387.074C181.309 379.926 182.765 360.189 190.045 339.693C190.804 337.479 187.892 337.163 186.69 339.377C166.75 374.296 160.483 402.888 173.017 415.477C195.552 437.997 285.502 408.961 354.879 339.693C424.257 270.425 446.728 186.987 424.193 164.531V164.404Z" stroke="white" stroke-opacity="0.15" stroke-width="6.47155" mask="url(#path-18-inside-8_1877_3845)"/>
<path d="M371.585 341.214C368.23 344.883 364.812 348.552 361.204 352.158C355.507 357.851 349.683 363.228 343.733 368.415L347.151 370.946C364.812 384.04 386.967 361.9 373.864 344.25L371.585 341.214Z" stroke="white" stroke-opacity="0.15" stroke-width="6.47155" mask="url(#path-18-inside-8_1877_3845)"/>
<path d="M286.827 326.281L289.676 328.368C299.107 320.714 308.413 312.427 317.338 303.571C322.402 298.51 327.276 293.26 332.024 288.009L329.112 284.087C307.02 254.356 307.02 213.681 329.112 184.012L373.865 123.79C386.969 106.141 364.813 84.0009 347.153 97.0954L286.89 141.819C257.139 163.896 216.5 163.896 186.749 141.819L126.423 97.0321C108.763 83.8744 86.544 106.078 99.7106 123.727L144.464 183.949C166.556 213.681 166.556 254.356 144.464 284.024L99.7106 344.309C86.6073 361.958 108.763 384.099 126.423 371.004L186.686 326.281C216.437 304.203 257.139 304.203 286.827 326.281ZM176.114 290.729C206.182 258.91 206.182 209.126 176.114 177.244C173.646 174.65 177.444 170.918 180.039 173.322C211.879 203.37 261.697 203.37 293.6 173.322C296.196 170.855 299.93 174.65 297.525 177.244C267.457 209.063 267.457 258.847 297.525 290.729C299.994 293.323 296.196 297.055 293.6 294.651C261.76 264.604 211.942 264.604 180.039 294.651C177.444 297.118 173.709 293.323 176.114 290.729Z" stroke="white" stroke-opacity="0.15" stroke-width="6.47155" mask="url(#path-18-inside-8_1877_3845)"/>
</mask>
<g mask="url(#mask3_1877_3845)">
<g filter="url(#filter7_d_1877_3845)">
<mask id="path-19-inside-9_1877_3845" fill="white">
<path d="M423.798 163.916C411.517 151.644 383.665 157.4 349.673 176.441C347.394 177.706 347.71 180.679 349.989 179.857C372.967 171.064 397.528 166.636 404.554 173.658C422.088 191.18 383.538 261.84 329.606 315.736C275.674 369.632 205.6 404.045 188.066 386.586C180.913 379.437 182.369 359.701 189.649 339.205C190.408 336.991 187.496 336.675 186.294 338.889C166.354 373.807 160.087 402.4 172.621 414.989C195.156 437.509 285.106 408.473 354.483 339.205C423.861 269.937 446.333 186.499 423.798 164.042V163.916Z"/>
<path d="M371.189 340.726C367.834 344.395 364.416 348.064 360.808 351.669C355.111 357.363 349.287 362.74 343.337 367.927L346.755 370.457C364.416 383.552 386.571 361.411 373.468 343.762L371.189 340.726Z"/>
</mask>
<path d="M423.798 163.916C411.517 151.644 383.665 157.4 349.673 176.441C347.394 177.706 347.71 180.679 349.989 179.857C372.967 171.064 397.528 166.636 404.554 173.658C422.088 191.18 383.538 261.84 329.606 315.736C275.674 369.632 205.6 404.045 188.066 386.586C180.913 379.437 182.369 359.701 189.649 339.205C190.408 336.991 187.496 336.675 186.294 338.889C166.354 373.807 160.087 402.4 172.621 414.989C195.156 437.509 285.106 408.473 354.483 339.205C423.861 269.937 446.333 186.499 423.798 164.042V163.916Z" fill="url(#paint13_linear_1877_3845)" shape-rendering="crispEdges"/>
<path d="M371.189 340.726C367.834 344.395 364.416 348.064 360.808 351.669C355.111 357.363 349.287 362.74 343.337 367.927L346.755 370.457C364.416 383.552 386.571 361.411 373.468 343.762L371.189 340.726Z" fill="url(#paint14_linear_1877_3845)" shape-rendering="crispEdges"/>
<path d="M423.798 163.916C411.517 151.644 383.665 157.4 349.673 176.441C347.394 177.706 347.71 180.679 349.989 179.857C372.967 171.064 397.528 166.636 404.554 173.658C422.088 191.18 383.538 261.84 329.606 315.736C275.674 369.632 205.6 404.045 188.066 386.586C180.913 379.437 182.369 359.701 189.649 339.205C190.408 336.991 187.496 336.675 186.294 338.889C166.354 373.807 160.087 402.4 172.621 414.989C195.156 437.509 285.106 408.473 354.483 339.205C423.861 269.937 446.333 186.499 423.798 164.042V163.916Z" stroke="white" stroke-opacity="0.5" stroke-width="6.47155" shape-rendering="crispEdges" mask="url(#path-19-inside-9_1877_3845)"/>
<path d="M371.189 340.726C367.834 344.395 364.416 348.064 360.808 351.669C355.111 357.363 349.287 362.74 343.337 367.927L346.755 370.457C364.416 383.552 386.571 361.411 373.468 343.762L371.189 340.726Z" stroke="white" stroke-opacity="0.5" stroke-width="6.47155" shape-rendering="crispEdges" mask="url(#path-19-inside-9_1877_3845)"/>
</g>
<mask id="path-20-inside-10_1877_3845" fill="white">
<path d="M286.825 326.342L289.673 328.43C299.105 320.776 308.41 312.489 317.336 303.633C322.4 298.572 327.274 293.322 332.021 288.071L329.109 284.149C307.018 254.418 307.018 213.743 329.109 184.074L373.863 123.852C386.966 106.203 364.811 84.0628 347.15 97.1573L286.888 141.881C257.137 163.958 216.498 163.958 186.746 141.881L126.421 97.094C108.76 83.9363 86.5416 106.14 99.7081 123.789L144.462 184.011C166.554 213.743 166.554 254.418 144.462 284.086L99.7081 344.371C86.6049 362.02 108.76 384.161 126.421 371.066L186.683 326.342C216.434 304.265 257.137 304.265 286.825 326.342ZM176.112 290.791C206.18 258.972 206.18 209.188 176.112 177.306C173.643 174.712 177.441 170.98 180.037 173.384C211.877 203.431 261.694 203.431 293.598 173.384C296.193 170.917 299.928 174.712 297.522 177.306C267.455 209.125 267.455 258.909 297.522 290.791C299.991 293.385 296.193 297.117 293.598 294.713C261.758 264.666 211.94 264.666 180.037 294.713C177.441 297.18 173.707 293.385 176.112 290.791Z"/>
</mask>
<path d="M286.825 326.342L289.673 328.43C299.105 320.776 308.41 312.489 317.336 303.633C322.4 298.572 327.274 293.322 332.021 288.071L329.109 284.149C307.018 254.418 307.018 213.743 329.109 184.074L373.863 123.852C386.966 106.203 364.811 84.0628 347.15 97.1573L286.888 141.881C257.137 163.958 216.498 163.958 186.746 141.881L126.421 97.094C108.76 83.9363 86.5416 106.14 99.7081 123.789L144.462 184.011C166.554 213.743 166.554 254.418 144.462 284.086L99.7081 344.371C86.6049 362.02 108.76 384.161 126.421 371.066L186.683 326.342C216.434 304.265 257.137 304.265 286.825 326.342ZM176.112 290.791C206.18 258.972 206.18 209.188 176.112 177.306C173.643 174.712 177.441 170.98 180.037 173.384C211.877 203.431 261.694 203.431 293.598 173.384C296.193 170.917 299.928 174.712 297.522 177.306C267.455 209.125 267.455 258.909 297.522 290.791C299.991 293.385 296.193 297.117 293.598 294.713C261.758 264.666 211.94 264.666 180.037 294.713C177.441 297.18 173.707 293.385 176.112 290.791Z" fill="#0B0E14" stroke="white" stroke-opacity="0.25" stroke-width="6.47155" mask="url(#path-20-inside-10_1877_3845)"/>
<g filter="url(#filter8_f_1877_3845)" style="mix-blend-mode:plus-lighter">
<ellipse cx="262.67" cy="25.6065" rx="140.756" ry="404.472" transform="rotate(45 262.67 25.6065)" fill="#33EEFF"/>
</g>
<g filter="url(#filter9_f_1877_3845)" style="mix-blend-mode:plus-lighter">
<ellipse cx="301.09" cy="324.313" rx="69.0099" ry="404.472" fill="#FF9933"/>
</g>
<g filter="url(#filter10_f_1877_3845)" style="mix-blend-mode:plus-lighter">
<ellipse cx="394.562" cy="417.809" rx="80.3141" ry="404.472" transform="rotate(45 394.562 417.809)" fill="#FFEE00"/>
</g>
<g filter="url(#filter11_f_1877_3845)" style="mix-blend-mode:plus-lighter">
<ellipse cx="262.671" cy="25.6065" rx="140.756" ry="404.472" transform="rotate(45 262.671 25.6065)" fill="#33EEFF"/>
</g>
<g filter="url(#filter12_f_1877_3845)" style="mix-blend-mode:plus-lighter">
<ellipse cx="86.491" cy="316.188" rx="140.756" ry="404.472" transform="rotate(45 86.491 316.188)" fill="#5F33FF"/>
</g>
<g filter="url(#filter13_f_1877_3845)" style="mix-blend-mode:plus-lighter">
<ellipse cx="662.458" cy="-45.7087" rx="140.756" ry="404.472" transform="rotate(45 662.458 -45.7087)" fill="#5F33FF"/>
</g>
</g>
</g>
<rect x="1.5" y="1.5" width="501.352" height="494.954" rx="94.5" stroke="url(#paint15_linear_1877_3845)" stroke-width="3"/>
</g>
</g>
<defs>
<filter id="filter0_f_1877_3845" x="18.0674" y="15.3186" width="492.218" height="485.243" filterUnits="userSpaceOnUse" color-interpolation-filters="sRGB">
<feFlood flood-opacity="0" result="BackgroundImageFix"/>
<feBlend mode="normal" in="SourceGraphic" in2="BackgroundImageFix" result="shape"/>
<feGaussianBlur stdDeviation="38.8293" result="effect1_foregroundBlur_1877_3845"/>
</filter>
<filter id="filter1_d_1877_3845" x="10.8326" y="2.05818" width="589.658" height="588.617" filterUnits="userSpaceOnUse" color-interpolation-filters="sRGB">
<feFlood flood-opacity="0" result="BackgroundImageFix"/>
<feColorMatrix in="SourceAlpha" type="matrix" values="0 0 0 0 0 0 0 0 0 0 0 0 0 0 0 0 0 0 127 0" result="hardAlpha"/>
<feOffset dx="6.47155" dy="6.47155"/>
<feGaussianBlur stdDeviation="80.8944"/>
<feComposite in2="hardAlpha" operator="out"/>
<feColorMatrix type="matrix" values="0 0 0 0 1 0 0 0 0 1 0 0 0 0 1 0 0 0 0.25 0"/>
<feBlend mode="normal" in2="BackgroundImageFix" result="effect1_dropShadow_1877_3845"/>
<feBlend mode="normal" in="SourceGraphic" in2="effect1_dropShadow_1877_3845" result="shape"/>
</filter>
<filter id="filter2_f_1877_3845" x="-104.952" y="-342.123" width="735.253" height="735.253" filterUnits="userSpaceOnUse" color-interpolation-filters="sRGB">
<feFlood flood-opacity="0" result="BackgroundImageFix"/>
<feBlend mode="normal" in="SourceGraphic" in2="BackgroundImageFix" result="shape"/>
<feGaussianBlur stdDeviation="32.3578" result="effect1_foregroundBlur_1877_3845"/>
</filter>
<filter id="filter3_f_1877_3845" x="-53.8047" y="-30.6655" width="709.8" height="709.8" filterUnits="userSpaceOnUse" color-interpolation-filters="sRGB">
<feFlood flood-opacity="0" result="BackgroundImageFix"/>
<feBlend mode="normal" in="SourceGraphic" in2="BackgroundImageFix" result="shape"/>
<feGaussianBlur stdDeviation="32.3578" result="effect1_foregroundBlur_1877_3845"/>
</filter>
<filter id="filter4_f_1877_3845" x="38.2076" y="61.3461" width="712.72" height="712.72" filterUnits="userSpaceOnUse" color-interpolation-filters="sRGB">
<feFlood flood-opacity="0" result="BackgroundImageFix"/>
<feBlend mode="normal" in="SourceGraphic" in2="BackgroundImageFix" result="shape"/>
<feGaussianBlur stdDeviation="32.3578" result="effect1_foregroundBlur_1877_3845"/>
</filter>
<filter id="filter5_f_1877_3845" x="-104.951" y="-342.123" width="735.253" height="735.253" filterUnits="userSpaceOnUse" color-interpolation-filters="sRGB">
<feFlood flood-opacity="0" result="BackgroundImageFix"/>
<feBlend mode="normal" in="SourceGraphic" in2="BackgroundImageFix" result="shape"/>
<feGaussianBlur stdDeviation="32.3578" result="effect1_foregroundBlur_1877_3845"/>
</filter>
<filter id="filter6_f_1877_3845" x="-281.131" y="-51.5417" width="735.253" height="735.253" filterUnits="userSpaceOnUse" color-interpolation-filters="sRGB">
<feFlood flood-opacity="0" result="BackgroundImageFix"/>
<feBlend mode="normal" in="SourceGraphic" in2="BackgroundImageFix" result="shape"/>
<feGaussianBlur stdDeviation="32.3578" result="effect1_foregroundBlur_1877_3845"/>
</filter>
<filter id="filter7_d_1877_3845" x="10.8326" y="2.13252" width="589.658" height="588.617" filterUnits="userSpaceOnUse" color-interpolation-filters="sRGB">
<feFlood flood-opacity="0" result="BackgroundImageFix"/>
<feColorMatrix in="SourceAlpha" type="matrix" values="0 0 0 0 0 0 0 0 0 0 0 0 0 0 0 0 0 0 127 0" result="hardAlpha"/>
<feOffset dx="6.47155" dy="6.47155"/>
<feGaussianBlur stdDeviation="80.8944"/>
<feComposite in2="hardAlpha" operator="out"/>
<feColorMatrix type="matrix" values="0 0 0 0 1 0 0 0 0 1 0 0 0 0 1 0 0 0 0.25 0"/>
<feBlend mode="normal" in2="BackgroundImageFix" result="effect1_dropShadow_1877_3845"/>
<feBlend mode="normal" in="SourceGraphic" in2="effect1_dropShadow_1877_3845" result="shape"/>
</filter>
<filter id="filter8_f_1877_3845" x="-104.957" y="-342.02" width="735.253" height="735.253" filterUnits="userSpaceOnUse" color-interpolation-filters="sRGB">
<feFlood flood-opacity="0" result="BackgroundImageFix"/>
<feBlend mode="normal" in="SourceGraphic" in2="BackgroundImageFix" result="shape"/>
<feGaussianBlur stdDeviation="32.3578" result="effect1_foregroundBlur_1877_3845"/>
</filter>
<filter id="filter9_f_1877_3845" x="167.364" y="-144.874" width="267.451" height="938.375" filterUnits="userSpaceOnUse" color-interpolation-filters="sRGB">
<feFlood flood-opacity="0" result="BackgroundImageFix"/>
<feBlend mode="normal" in="SourceGraphic" in2="BackgroundImageFix" result="shape"/>
<feGaussianBlur stdDeviation="32.3578" result="effect1_foregroundBlur_1877_3845"/>
</filter>
<filter id="filter10_f_1877_3845" x="38.2022" y="61.449" width="712.72" height="712.721" filterUnits="userSpaceOnUse" color-interpolation-filters="sRGB">
<feFlood flood-opacity="0" result="BackgroundImageFix"/>
<feBlend mode="normal" in="SourceGraphic" in2="BackgroundImageFix" result="shape"/>
<feGaussianBlur stdDeviation="32.3578" result="effect1_foregroundBlur_1877_3845"/>
</filter>
<filter id="filter11_f_1877_3845" x="-104.956" y="-342.02" width="735.253" height="735.253" filterUnits="userSpaceOnUse" color-interpolation-filters="sRGB">
<feFlood flood-opacity="0" result="BackgroundImageFix"/>
<feBlend mode="normal" in="SourceGraphic" in2="BackgroundImageFix" result="shape"/>
<feGaussianBlur stdDeviation="32.3578" result="effect1_foregroundBlur_1877_3845"/>
</filter>
<filter id="filter12_f_1877_3845" x="-281.135" y="-51.4384" width="735.253" height="735.253" filterUnits="userSpaceOnUse" color-interpolation-filters="sRGB">
<feFlood flood-opacity="0" result="BackgroundImageFix"/>
<feBlend mode="normal" in="SourceGraphic" in2="BackgroundImageFix" result="shape"/>
<feGaussianBlur stdDeviation="32.3578" result="effect1_foregroundBlur_1877_3845"/>
</filter>
<filter id="filter13_f_1877_3845" x="294.831" y="-413.335" width="735.253" height="735.253" filterUnits="userSpaceOnUse" color-interpolation-filters="sRGB">
<feFlood flood-opacity="0" result="BackgroundImageFix"/>
<feBlend mode="normal" in="SourceGraphic" in2="BackgroundImageFix" result="shape"/>
<feGaussianBlur stdDeviation="32.3578" result="effect1_foregroundBlur_1877_3845"/>
</filter>
<linearGradient id="paint0_linear_1877_3845" x1="252.176" y1="0" x2="252.176" y2="497.954" gradientUnits="userSpaceOnUse">
<stop stop-color="white" stop-opacity="0.05"/>
<stop offset="1" stop-color="white" stop-opacity="0.02"/>
</linearGradient>
<linearGradient id="paint1_linear_1877_3845" x1="84.404" y1="257.886" x2="432.25" y2="257.886" gradientUnits="userSpaceOnUse">
<stop stop-color="#F2F5FC"/>
<stop offset="1" stop-color="white"/>
</linearGradient>
<linearGradient id="paint2_linear_1877_3845" x1="84.404" y1="257.886" x2="432.25" y2="257.886" gradientUnits="userSpaceOnUse">
<stop stop-color="#F2F5FC"/>
<stop offset="1" stop-color="white"/>
</linearGradient>
<linearGradient id="paint3_linear_1877_3845" x1="84.404" y1="257.886" x2="432.25" y2="257.886" gradientUnits="userSpaceOnUse">
<stop stop-color="#F2F5FC"/>
<stop offset="1" stop-color="white"/>
</linearGradient>
<linearGradient id="paint4_linear_1877_3845" x1="84.405" y1="257.886" x2="432.251" y2="257.886" gradientUnits="userSpaceOnUse">
<stop stop-color="#F2F5FC"/>
<stop offset="1" stop-color="white"/>
</linearGradient>
<linearGradient id="paint5_linear_1877_3845" x1="84.405" y1="257.886" x2="432.251" y2="257.886" gradientUnits="userSpaceOnUse">
<stop stop-color="#F2F5FC"/>
<stop offset="1" stop-color="white"/>
</linearGradient>
<linearGradient id="paint6_linear_1877_3845" x1="84.405" y1="257.886" x2="432.251" y2="257.886" gradientUnits="userSpaceOnUse">
<stop stop-color="#F2F5FC"/>
<stop offset="1" stop-color="white"/>
</linearGradient>
<linearGradient id="paint7_linear_1877_3845" x1="84.404" y1="257.96" x2="432.25" y2="257.96" gradientUnits="userSpaceOnUse">
<stop stop-color="#F2F5FC"/>
<stop offset="1" stop-color="white"/>
</linearGradient>
<linearGradient id="paint8_linear_1877_3845" x1="84.404" y1="257.96" x2="432.25" y2="257.96" gradientUnits="userSpaceOnUse">
<stop stop-color="#F2F5FC"/>
<stop offset="1" stop-color="white"/>
</linearGradient>
<linearGradient id="paint9_linear_1877_3845" x1="84.404" y1="257.96" x2="432.25" y2="257.96" gradientUnits="userSpaceOnUse">
<stop stop-color="#F2F5FC"/>
<stop offset="1" stop-color="white"/>
</linearGradient>
<linearGradient id="paint10_linear_1877_3845" x1="84.405" y1="257.96" x2="432.251" y2="257.96" gradientUnits="userSpaceOnUse">
<stop stop-color="#F2F5FC"/>
<stop offset="1" stop-color="white"/>
</linearGradient>
<linearGradient id="paint11_linear_1877_3845" x1="84.405" y1="257.96" x2="432.251" y2="257.96" gradientUnits="userSpaceOnUse">
<stop stop-color="#F2F5FC"/>
<stop offset="1" stop-color="white"/>
</linearGradient>
<linearGradient id="paint12_linear_1877_3845" x1="84.405" y1="257.96" x2="432.251" y2="257.96" gradientUnits="userSpaceOnUse">
<stop stop-color="#F2F5FC"/>
<stop offset="1" stop-color="white"/>
</linearGradient>
<linearGradient id="paint13_linear_1877_3845" x1="118.376" y1="130.165" x2="378.856" y2="390.645" gradientUnits="userSpaceOnUse">
<stop stop-color="white" stop-opacity="0.25"/>
<stop offset="1" stop-color="white" stop-opacity="0.8"/>
</linearGradient>
<linearGradient id="paint14_linear_1877_3845" x1="118.376" y1="130.165" x2="378.856" y2="390.645" gradientUnits="userSpaceOnUse">
<stop stop-color="white" stop-opacity="0.25"/>
<stop offset="1" stop-color="white" stop-opacity="0.8"/>
</linearGradient>
<linearGradient id="paint15_linear_1877_3845" x1="504.001" y1="-0.0227206" x2="0.000704763" y2="497.978" gradientUnits="userSpaceOnUse">
<stop stop-color="white" stop-opacity="0.24"/>
<stop offset="0.5" stop-color="white" stop-opacity="0"/>
<stop offset="1" stop-color="white" stop-opacity="0.24"/>
</linearGradient>
<clipPath id="clip0_1877_3845">
<rect width="504.352" height="497.954" rx="96" fill="white"/>
</clipPath>
<clipPath id="clip1_1877_3845">
<rect width="504.352" height="497.954" rx="96" fill="white"/>
</clipPath>
<clipPath id="clip2_1877_3845">
<rect width="504.352" height="497.954" rx="96" fill="white"/>
</clipPath>
</defs>
</svg>
